PathFileType	4	(X/Y/Z)	Patient4_TMGait_0pt6_02_left_41.trc.trc
DataRate	CameraRate	NumFrames	NumMarkers	Units	OrigDataRate	OrigDataStartFrame	OrigNumFrames
83.832335329341	83.832335329341	4	33	mm	83.832335329341	71	       141
Frame#	Time	Sacral			L.Shoulder			Chest			R.Shoulder			Neck			R.ASIS			L.ASIS			R.Thigh.Superior			R.Thigh.Lateral			R.Thigh.Inferior			R.Patella			L.Thigh.Superior			L.Thigh.Lateral			L.Thigh.Inferior			L.Patella			L.Shank.Superior			L.Shank.Lateral			L.Shank.Inferior			R.Shank.Superior			R.Shank.Lateral			R.Shank.Inferior			R.Heel			R.Midfoot.Superior			R.Midfoot.Lateral			R.Toe			L.Heel			L.Midfoot.Lateral			L.Midfoot.Superior			L.Toe			L.Elbow			L.Wrist			R.Elbow			R.Wrist			
		X1	Y1	Z1	X2	Y2	Z2	X3	Y3	Z3	X4	Y4	Z4	X5	Y5	Z5	X6	Y6	Z6	X7	Y7	Z7	X8	Y8	Z8	X9	Y9	Z9	X10	Y10	Z10	X11	Y11	Z11	X12	Y12	Z12	X13	Y13	Z13	X14	Y14	Z14	X15	Y15	Z15	X16	Y16	Z16	X17	Y17	Z17	X18	Y18	Z18	X19	Y19	Z19	X20	Y20	Z20	X21	Y21	Z21	X22	Y22	Z22	X23	Y23	Z23	X24	Y24	Z24	X25	Y25	Z25	X26	Y26	Z26	X27	Y27	Z27	X28	Y28	Z28	X29	Y29	Z29	X30	Y30	Z30	X31	Y31	Z31	X32	Y32	Z32	X33	Y33	Z33	

71	50.935000000000	849.003978026139	1005.680553929420	477.410024108707	1053.647522591533	1431.600409471519	304.271947103741	1137.904813109102	1357.305675469449	472.669826958265	1043.720901733030	1440.641901502988	635.999199691662	1041.310888763411	1491.969134218839	453.904983150050	1069.473981670295	945.053230713085	607.073114526938	1067.761809799729	957.958363530305	329.735280301945	1147.252283736150	774.525263337808	578.002413503951	1108.037236807499	650.812383192663	650.758218651147	1196.288026641681	615.755096902037	569.452675205002	1232.015755543802	529.778466610378	586.978432229542	1076.233804142453	732.333819369044	364.211040429138	963.639132541259	634.405467311703	301.438598936554	1023.598589735611	543.521373869903	369.296164652217	1009.048668475653	477.142960184188	381.019511882855	978.447973681893	409.622257034441	372.749441951020	880.557398970451	302.895321156629	319.698144579885	915.548623092038	189.502729149762	396.769447662562	1210.876860356147	440.474429095970	596.387879568705	1152.467829677621	328.956498341873	659.295753354328	1216.794369312906	239.965554049586	606.349241114364	1116.645637525835	56.451155839119	577.916969292371	1283.257255479112	125.363969863068	617.145051597385	1202.937992092276	49.209155361219	649.193160650321	1406.829307307197	82.350576963156	636.813631142175	775.970748331244	39.198115376483	439.395383745256	850.964892578546	36.136635759795	360.110145360011	934.302471921537	95.722227959632	388.275411335224	1063.124926402373	41.285302203887	362.219891796510	1123.568621377137	1115.975989040238	143.105390889431	1375.673426160694	1129.223402982149	180.188078520272	850.267433269803	1159.632626168838	739.350740289541	769.381135040805	910.023743302279	748.000039621379	
72	50.946928571429	850.738034812844	1003.897408957172	478.915755209422	1053.692031665559	1430.024684983159	305.010312966553	1138.197250915695	1356.373052072586	473.477159265763	1044.200221798888	1439.998560799342	636.930798180651	1041.118526805430	1490.662315740695	454.494493361109	1071.269607967447	943.495638698501	608.387156986819	1069.370711364296	956.874686926348	330.910920358108	1147.202510237734	770.301587515928	580.411014208175	1104.621604437193	646.629488168270	651.719851647604	1193.089833460726	611.123176229232	570.866065948328	1227.122956838674	526.058721913804	587.018331737362	1075.936460883255	730.825913125264	364.911658512777	962.103862745246	633.878079091470	302.168405304094	1021.265727201480	542.368774745015	369.700460572473	1006.107986777799	475.821429542051	381.317941623367	974.703123745434	408.662591747365	373.061507791317	875.442745904932	303.073935217684	320.078423827949	909.426329829977	189.122917130081	396.823110658488	1207.801172125019	436.777791302032	596.373840135986	1151.032039275530	323.860980066459	658.233067114852	1217.531573670497	236.375985251333	605.236970021106	1120.921833064258	51.582305452908	575.582247663050	1286.403946182074	122.404309762630	615.202410063906	1206.959806384672	45.817529508940	647.280659949200	1410.570932029889	81.172854162707	635.620238388442	768.794389827457	39.392666204577	439.283067331075	843.817555080630	36.183760760990	360.109790972252	927.208613204499	95.723621031640	388.208777157113	1055.920231637696	41.092670463399	362.199099355708	1124.383499682137	1114.329092429037	144.745804766999	1375.708887306342	1132.745410963277	183.114024594189	851.505307107374	1158.517992754330	740.915968467413	772.176845714214	908.353636142304	749.465688610437	
73	50.958857142857	852.556521039242	1002.038651149285	480.626405552292	1053.601066742871	1428.394989387960	305.866736365978	1138.508479853094	1355.419307188832	474.353035499985	1044.699194777659	1439.193120239729	638.006940616080	1040.913406384108	1489.302068935836	455.223940266256	1073.233704816303	941.858176543543	609.773191163315	1071.064969550588	955.706864226392	332.255105759394	1147.645456416554	766.262164983366	582.758322110109	1101.765095878829	642.636315668242	652.407852065270	1190.484025835790	606.811793203723	572.033031119949	1222.639392041995	522.294231671777	586.763332703404	1075.906907922813	729.308272082148	365.666080419669	960.863614929244	633.310662459197	303.039357827697	1019.328336621717	541.163135945296	370.189646529826	1003.613077948236	474.380549047729	381.693119936717	971.287130732663	407.613617793545	373.462532203928	870.535118214222	303.302928118171	320.540488107532	903.400605561776	188.735397171421	396.907751214795	1204.647573707757	432.950108475269	596.081743874181	1148.738198675577	319.140368498986	656.907791711117	1216.625348442785	232.725872255425	603.875162976120	1121.993855584185	47.829516416908	573.185857293078	1286.836570185848	119.066489908281	612.973767554379	1207.665669230878	43.009890846280	645.334982414890	1411.200582683105	78.633476990260	634.270351320446	761.611873565054	39.665702115904	439.140180426135	836.683253239440	36.255177687160	360.097344652462	920.146538604643	95.742489621862	388.127005109486	1048.729117356182	40.876027049953	362.163772507641	1124.728553403264	1112.410908167068	146.536761470832	1375.323599001120	1135.081274886879	186.079980611843	853.688411158812	1156.483566100980	742.766275271578	776.569112250812	905.597406098700	751.200292605562	
74	50.970785714286	854.418593865989	1000.174541229118	482.515261949132	1053.397115157891	1426.756902501219	306.846666312594	1138.856359070199	1354.480467315037	475.305723981067	1045.210027174725	1438.259573192694	639.208543268307	1040.739084050879	1487.937916902485	456.096861650306	1075.330347984602	940.195257134403	611.228672491890	1072.811375105177	954.494164013428	333.761594206576	1148.588153725625	762.513844613474	584.957005649806	1099.545308462413	638.955176063615	652.805767681475	1188.532838251881	602.930491152983	572.923713903632	1218.687011553155	518.614074518438	586.215960942316	1076.152875234405	727.822556278233	366.475699987764	959.942661749685	632.718272742116	304.058883223322	1017.834765677949	539.925395873020	370.771182585770	1001.630994360624	472.824020806259	382.141195043741	968.242666425850	406.486328205625	373.955311096977	865.872668459331	303.610610875743	321.088918185214	897.496858104744	188.367124160864	397.020845274908	1201.573625391427	429.129515004152	595.512099774602	1145.890109386045	314.872017177025	655.449060191612	1214.378567528350	229.087610736349	602.311103398612	1120.230887190480	45.079232704504	570.877748284553	1284.920578140626	115.472433727035	610.558847814241	1205.486570614933	40.770787692936	643.479962794551	1409.167184539428	74.980388464011	632.813012775785	754.426032337910	40.070770578770	438.968005429416	829.565510169053	36.368911848241	360.072090256614	913.137450224366	95.782776714332	388.025435640940	1041.560269384671	40.638128295571	362.112348265232	1124.576022522458	1110.235552548806	148.484127271991	1374.540408719409	1136.234421499534	189.068102640461	856.803536481954	1153.611292666544	744.882968708928	782.513650154169	901.859864282216	753.200301726650	
